/vscmnt/brussel_pixiu_data/_data_brussel/112/vsc11236/PredSimResults/SUBJ11opt3D/weighted-trackIG/worker_04.mot
version=1
nRows=11
nColumns=50
inDegrees=yes
endheader
                time	         pelvis_tilt	         pelvis_list	     pelvis_rotation	           pelvis_tx	           pelvis_ty	           pelvis_tz	       hip_flexion_r	     hip_adduction_r	      hip_rotation_r	        knee_angle_r	       ankle_angle_r	         mtp_angle_r	       hip_flexion_l	     hip_adduction_l	      hip_rotation_l	        knee_angle_l	       ankle_angle_l	         mtp_angle_l	    lumbar_extension	      lumbar_bending	     lumbar_rotation	 ercspn_r/activation	 intobl_r/activation	 extobl_r/activation	    abd_r/activation	    add_r/activation	hamstrings_r/activation	bifemsh_r/activation	glut_max_r/activation	iliopsoas_r/activation	rect_fem_r/activation	  vasti_r/activation	gastroc_r/activation	 soleus_r/activation	tib_ant_r/activation	 ercspn_l/activation	 intobl_l/activation	 extobl_l/activation	    abd_l/activation	    add_l/activation	hamstrings_l/activation	bifemsh_l/activation	glut_max_l/activation	iliopsoas_l/activation	rect_fem_l/activation	  vasti_l/activation	gastroc_l/activation	 soleus_l/activation	tib_ant_l/activation	
          1.43686988	         -2.52394776	         -1.42615130	          6.77224975	          1.45123858	          0.94264501	         -0.00500298	         30.70561925	         -1.36100098	         -3.59979577	         -9.71288836	          1.60606165	          0.22169708	        -13.22913446	         -3.33117109	         -0.52502424	        -12.43371697	         13.36827115	         28.93099676	        -14.13297543	         -2.66439690	         -3.30876169	          0.02672680	          0.27027390	          0.07095111	          0.01000101	          0.20904544	          0.04212579	          0.11329290	          0.02773897	          0.11484915	          0.04546867	          0.02125041	          0.01000077	          0.01000016	          0.40594392	          0.01000205	          0.01000119	          0.01000135	          0.04396243	          0.01000363	          0.02411600	          0.29868114	          0.03075445	          0.19318511	          0.01000485	          0.01000126	          0.16864382	          0.34673165	          0.01398003	
          1.45123858	         -2.69735690	         -1.50795995	          6.82121545	          1.47004047	          0.94022882	         -0.00351197	         30.54343908	         -1.10295433	         -3.87094907	        -10.81249922	          1.08452160	          0.22890148	        -13.70995633	         -3.61952177	         -0.95785588	        -13.27220009	         12.67351348	         30.78417478	        -13.62909654	         -2.11630976	         -3.52869496	          0.02156608	          0.21805651	          0.05724282	          0.01000051	          0.23563948	          0.04444540	          0.09140768	          0.07853819	          0.09265936	          0.03668461	          0.01714509	          0.01246016	          0.01350686	          0.42441761	          0.01255491	          0.01000195	          0.01000195	          0.03546863	          0.04774671	          0.03315200	          0.25931442	          0.02481296	          0.21773383	          0.01000680	          0.01000171	          0.14147254	          0.32768941	          0.01127921	
          1.46560728	         -2.84679058	         -1.60469607	          6.84932028	          1.48932587	          0.93807596	         -0.00196286	         30.27288484	         -0.85526860	         -4.02885210	        -12.03562175	          0.58606905	          0.20905327	        -14.04823756	         -3.93449492	         -1.39772667	        -14.43442473	         11.82031007	         32.74375305	        -13.08442198	         -1.54034350	         -3.74945587	          0.01740262	          0.17592692	          0.04618308	          0.03649044	          0.20558211	          0.05266625	          0.07375103	          0.11428607	          0.07475682	          0.02959757	          0.01383309	          0.01005331	          0.01089736	          0.49421897	          0.01013392	          0.01000084	          0.01000367	          0.02861588	          0.03852632	          0.03676728	          0.21383205	          0.02001913	          0.18420273	          0.01000293	          0.01000100	          0.11413911	          0.30205752	          0.01000062	
          1.47997598	         -2.97531036	         -1.70166850	          6.84595812	          1.50872325	          0.93641080	         -0.00032006	         29.99300135	         -0.61828147	         -4.27070132	        -13.22670594	         -0.17484898	          0.18225271	        -14.14996749	         -4.26028963	         -1.85312841	        -16.02558094	         10.75213530	         34.81667589	        -12.54301575	         -0.96016358	         -3.95830201	          0.02370315	          0.14193667	          0.03726018	          0.07128386	          0.24391562	          0.05605433	          0.05950423	          0.11055248	          0.06031321	          0.02387978	          0.04724082	          0.01000115	          0.01000042	          0.55926561	          0.03397485	          0.01000090	          0.01000174	          0.02308713	          0.04030462	          0.04179592	          0.17253909	          0.01615145	          0.15746862	          0.01000262	          0.01000078	          0.09208655	          0.27266134	          0.01000062	
          1.49434468	         -3.08285160	         -1.79291207	          6.81150357	          1.52799521	          0.93538396	          0.00140739	         29.77375040	         -0.40012369	         -4.58383793	        -14.55990713	         -0.79736580	          0.13307303	        -13.95062027	         -4.59327230	         -2.32006296	        -18.11891690	          9.43129553	         36.95776765	        -12.02994586	         -0.38491235	         -4.15088029	          0.02875348	          0.11451354	          0.03006127	          0.10059081	          0.26754722	          0.06167348	          0.04801040	          0.11604091	          0.04866023	          0.01926669	          0.13931020	          0.01000152	          0.01000061	          0.59775807	          0.05979217	          0.01000098	          0.01000160	          0.01862656	          0.10435577	          0.04628091	          0.13922236	          0.01303100	          0.12705787	          0.01000185	          0.01000048	          0.07429470	          0.22656753	          0.01000052	
          1.50871338	         -3.17179709	         -1.87615797	          6.74458246	          1.54692517	          0.93518556	          0.00318603	         29.56337763	         -0.19025124	         -4.91035984	        -15.97061964	         -1.01871154	          0.07508631	        -13.38369803	         -4.93176656	         -2.79806521	        -20.78651531	          7.83855669	         39.00414734	        -11.56449344	          0.18338548	         -4.32065451	          0.02321408	          0.09238874	          0.02425326	          0.11591984	          0.28444481	          0.06477238	          0.03873821	          0.13324578	          0.03925871	          0.01554490	          0.19450776	          0.01000135	          0.01000043	          0.58534357	          0.08344634	          0.01000107	          0.01000193	          0.01502782	          0.16811432	          0.05911251	          0.11234744	          0.01051348	          0.10251232	          0.01000131	          0.01000031	          0.05994037	          0.18279275	          0.01000045	
          1.52308208	         -3.24460456	         -1.94719532	          6.64331564	          1.56530674	          0.93592750	          0.00497489	         29.30234480	          0.02291471	         -5.18432894	        -17.36008355	         -0.70476709	          0.04532092	        -12.40223832	         -5.27324758	         -3.28892820	        -24.06614949	          6.00124452	         40.65090969	        -11.16517049	          0.74239921	         -4.46159600	          0.01873235	          0.07453865	          0.01956743	          0.12743669	          0.28951807	          0.06864818	          0.03126129	          0.12918586	          0.03167364	          0.01254230	          0.25477883	          0.01000130	          0.01000044	          0.51050047	          0.09435145	          0.01000189	          0.01000202	          0.01212441	          0.22729021	          0.07158880	          0.10147531	          0.01000037	          0.08270757	          0.01000078	          0.01000018	          0.04835942	          0.14747559	          0.01000111	
          1.53745077	         -3.30349661	         -1.98971918	          6.50663025	          1.58302278	          0.93763233	          0.00672374	         28.89095488	          0.24334313	         -5.33776652	        -18.52530110	          0.06069240	          0.13636177	        -10.99342191	         -5.60960070	         -3.82008723	        -27.97743731	          4.15883966	         41.17361802	        -10.84200460	          1.27791765	         -4.57056612	          0.01511486	          0.06013737	          0.01578699	          0.12776311	          0.27372735	          0.06997561	          0.02522802	          0.12438073	          0.02555408	          0.01012029	          0.29527475	          0.01000287	          0.01000070	          0.41344161	          0.09008456	          0.01000219	          0.01000584	          0.01000024	          0.27367362	          0.07499839	          0.08189140	          0.01000037	          0.06672879	          0.01000073	          0.01000016	          0.03901603	          0.11898201	          0.01000056	
          1.55181947	         -3.35011682	         -1.97777643	          6.32636708	          1.60004379	          0.94026895	          0.00838609	         28.23259997	          0.45374317	         -5.36189236	        -19.24028051	          0.94177916	          0.36977182	         -9.19235630	         -5.92375888	         -4.38162360	        -32.41748490	          2.24026194	         40.47618601	        -10.59859666	          1.76556497	         -4.63989760	          0.01219683	          0.04851856	          0.01273705	          0.11897338	          0.26091237	          0.07407058	          0.02035951	          0.10035609	          0.02061687	          0.01000263	          0.30399218	          0.01000148	          0.01000036	          0.33811702	          0.07269338	          0.01000366	          0.02591967	          0.01000030	          0.29928798	          0.06310474	          0.07239217	          0.01000035	          0.05383718	          0.01000063	          0.01000013	          0.03147787	          0.09599364	          0.01000062	
          1.56618817	         -3.38457695	         -1.88872364	          6.09487578	          1.61639446	          0.94367354	          0.00994281	         27.31188495	          0.62666968	         -5.26999977	        -19.44451101	          1.70816946	          0.68466636	         -7.08174272	         -6.19577066	         -4.93923287	        -37.15619168	          0.05636085	         38.79629480	        -10.43587510	          2.18161659	         -4.66759147	          0.01000986	          0.03914459	          0.01027666	          0.10244826	          0.25107670	          0.07450918	          0.01642819	          0.08097219	          0.01663359	          0.01000285	          0.28571576	          0.01000136	          0.01000038	          0.28640340	          0.05867681	          0.01000294	          0.05052884	          0.01000027	          0.30399300	          0.05091285	          0.08106180	          0.01000036	          0.04343659	          0.01000061	          0.01000011	          0.02539617	          0.07744683	          0.01000085	
          1.58055687	         -3.40458248	         -1.71357122	          5.80846621	          1.63211710	          0.94759712	          0.01140312	         26.19373512	          0.74119756	         -5.06973310	        -19.25884355	          2.34963716	          1.02221889	         -4.75551193	         -6.40995066	         -5.42958318	        -41.98180406	         -2.35558247	         36.14929828	        -10.35390567	          2.51255948	         -4.65642716	          0.01002590	          0.03158173	          0.01000160	          0.09336872	          0.21528721	          0.07178419	          0.01325578	          0.06533450	          0.01341993	          0.01000288	          0.24881974	          0.01000137	          0.01000044	          0.25060243	          0.07186896	          0.03313407	          0.07405257	          0.01000027	          0.24527011	          0.04107622	          0.06956461	          0.01000042	          0.03504624	          0.01000074	          0.01000012	          0.02048957	          0.06248343	          0.03937124	
